<?xml version="1.0" standalone="no"?>
<!DOCTYPE svg PUBLIC "-//W3C//DTD SVG 20010904//EN"
 "http://www.w3.org/TR/2001/REC-SVG-20010904/DTD/svg10.dtd">
<svg version="1.0" xmlns="http://www.w3.org/2000/svg"
 width="500.000000pt" height="500.000000pt" viewBox="0 0 500.000000 500.000000"
 preserveAspectRatio="xMidYMid meet">
<metadata>
Created by potrace 1.11, written by Peter Selinger 2001-2013
</metadata>
<g transform="translate(0.000000,500.000000) scale(0.100000,-0.100000)"
fill="#000000" stroke="none">
<path d="M1833 4172 c-7 -5 -24 -35 -37 -68 -52 -127 -84 -294 -93 -480 -12
-257 32 -475 227 -1120 146 -482 172 -625 151 -829 -14 -136 -36 -212 -106
-365 -65 -142 -85 -207 -85 -281 0 -94 27 -140 105 -182 39 -22 48 -22 505
-22 463 0 465 0 507 22 59 32 95 83 101 144 7 78 -15 161 -85 317 -79 178
-102 263 -110 412 -10 197 16 326 165 820 193 639 237 872 214 1139 -17 197
-63 390 -112 469 l-20 32 -657 0 c-362 0 -664 -4 -670 -8z m1296 -175 c29 -92
61 -270 61 -343 l0 -38 -42 41 c-24 23 -70 55 -103 70 l-60 28 -458 3 c-392 3
-467 1 -520 -13 -67 -17 -115 -45 -165 -95 l-32 -32 0 50 c0 97 38 283 85 410
3 9 133 12 604 12 l600 0 30 -93z m-139 -333 c106 -31 190 -149 190 -265 0
-91 -71 -199 -160 -244 -56 -29 -148 -31 -205 -6 -76 34 -111 66 -144 132 -25
50 -31 75 -31 125 0 54 -3 65 -21 74 -17 9 -25 8 -41 -7 -18 -16 -20 -27 -16
-89 9 -132 87 -247 206 -302 105 -48 249 -34 339 34 l31 24 -14 -62 c-21 -91
-76 -283 -154 -538 -136 -450 -160 -563 -160 -755 0 -180 31 -338 91 -456 l18
-37 -82 -12 c-190 -29 -501 -29 -678 0 l-77 12 30 72 c47 114 69 218 75 362 9
211 -11 317 -159 809 -105 352 -170 587 -163 593 3 3 13 -2 23 -11 74 -67 241
-83 344 -34 120 58 201 182 202 308 1 75 -10 95 -47 85 -22 -5 -25 -11 -29
-78 -5 -82 -24 -125 -77 -181 -130 -138 -345 -105 -431 66 -56 112 -34 233 58
321 77 74 89 75 588 76 373 0 448 -2 494 -16z m-730 -2490 c169 -19 414 -14
579 11 57 9 109 14 117 11 18 -7 45 -103 47 -171 2 -51 -1 -59 -26 -81 l-28
-24 -450 0 -451 0 -30 31 c-29 29 -30 33 -25 90 3 33 13 82 23 110 l19 51 40
-6 c22 -3 105 -13 185 -22z"/>
<path d="M1880 3445 c-19 -23 -3 -98 33 -152 50 -74 160 -124 196 -89 13 14
13 18 1 29 -8 8 -33 19 -55 25 -56 16 -101 66 -116 127 -6 28 -13 56 -15 63
-5 17 -29 15 -44 -3z"/>
</g>
</svg>
